<svg xmlns="http://www.w3.org/2000/svg" viewBox="0 0 2048 2048"><path fill="#f0a400" fill-rule="evenodd" d="M 1220.669 123.665 C 1220.301 124.032, 1220 380.736, 1220 694.117 C 1220 1193.266, 1219.813 1266.107, 1218.493 1281.700 C 1214.679 1326.738, 1206.349 1359.410, 1190.764 1390.457 C 1164.803 1442.172, 1111.744 1480.991, 1051.500 1492.345 C 1032.152 1495.991, 1026.043 1496.499, 1002 1496.465 C 983.748 1496.439, 974.822 1495.993, 967 1494.716 C 954.872 1492.735, 938.934 1488.828, 931 1485.890 C 927.975 1484.769, 924.150 1483.441, 922.500 1482.937 C 917.229 1481.329, 898.629 1471.483, 889.486 1465.462 C 864.976 1449.321, 842.541 1425.672, 824.538 1397 C 803.534 1363.549, 784.312 1314.517, 773.496 1266.807 C 772.087 1260.588, 770.751 1254.974, 770.529 1254.330 C 770.246 1253.511, 767.182 1254.064, 760.312 1256.172 C 754.915 1257.829, 748.475 1259.777, 746 1260.501 C 743.525 1261.225, 735.425 1263.700, 728 1266 C 720.575 1268.300, 712.475 1270.775, 710 1271.500 C 707.525 1272.225, 699.538 1274.659, 692.250 1276.909 C 684.963 1279.159, 673.038 1282.841, 665.750 1285.091 C 658.462 1287.341, 650.475 1289.775, 648 1290.500 C 645.525 1291.225, 637.650 1293.625, 630.500 1295.834 C 623.350 1298.042, 609.400 1302.324, 599.500 1305.349 C 589.600 1308.374, 574.750 1312.946, 566.500 1315.509 C 558.250 1318.072, 545.763 1321.931, 538.750 1324.084 C 531.737 1326.238, 520.038 1329.841, 512.750 1332.091 C 505.462 1334.341, 497.475 1336.775, 495 1337.500 C 492.525 1338.225, 484.425 1340.700, 477 1343 C 469.575 1345.300, 461.475 1347.776, 459 1348.501 C 456.525 1349.227, 450.675 1351.026, 446 1352.500 C 441.325 1353.974, 435.475 1355.773, 433 1356.499 C 430.525 1357.224, 422.425 1359.700, 415 1362 C 407.575 1364.300, 399.475 1366.775, 397 1367.500 C 394.525 1368.225, 386.425 1370.699, 379 1372.998 C 371.575 1375.298, 364.375 1377.511, 363 1377.918 L 360.500 1378.657 360.536 1392.578 C 360.592 1414.535, 365.193 1444.697, 373.032 1474.500 C 374.768 1481.100, 376.530 1487.850, 376.947 1489.500 C 378.281 1494.775, 388.626 1525.125, 392.896 1536.289 C 399.702 1554.085, 414.130 1585.591, 421.969 1599.776 C 445.186 1641.792, 469.162 1676.384, 500.446 1713 C 514.467 1729.411, 517.273 1732.420, 534.949 1750 C 578.810 1793.621, 631.401 1830.438, 693.045 1860.676 C 702.095 1865.116, 711.075 1869.446, 713 1870.299 C 714.925 1871.153, 719.200 1873.064, 722.500 1874.546 C 730.075 1877.949, 758.944 1888.838, 769.500 1892.273 C 801.538 1902.700, 838.943 1911.433, 873.500 1916.556 C 912.847 1922.389, 938.426 1924.174, 990 1924.689 C 1030.126 1925.089, 1040.749 1924.864, 1067.500 1923.049 C 1104.982 1920.507, 1131.870 1917.879, 1149.500 1915.034 C 1152.800 1914.502, 1160.225 1913.342, 1166 1912.457 C 1177.296 1910.726, 1186.697 1909.008, 1202.500 1905.790 C 1208 1904.670, 1214.475 1903.361, 1216.888 1902.881 C 1250.148 1896.268, 1310.811 1876.961, 1343.500 1862.586 C 1345.150 1861.861, 1348.975 1860.213, 1352 1858.925 C 1363.040 1854.225, 1407.836 1831.110, 1420.089 1823.791 C 1515.915 1766.554, 1585.924 1693.135, 1631.473 1602.112 C 1638.056 1588.957, 1647.734 1567.073, 1651.644 1556.500 C 1671.185 1503.662, 1681.639 1452.077, 1684.980 1392 C 1685.817 1376.953, 1686.038 1205.522, 1685.810 747.500 L 1685.500 123.500 1453.419 123.248 C 1325.774 123.109, 1221.037 123.297, 1220.669 123.665"/></svg>
